{
    "asset" : {
        "generator" : "Khronos glTF Blender I/O v1.6.16",
        "version" : "2.0"
    },
    "extensionsUsed" : [
        "KHR_lights_punctual"
    ],
    "extensionsRequired" : [
        "KHR_lights_punctual"
    ],
    "extensions" : {
        "KHR_lights_punctual" : {
            "lights" : [
                {
                    "color" : [
                        1,
                        1,
                        1
                    ],
                    "intensity" : 10,
                    "spot" : {
                        "innerConeAngle" : 0.3337942263919169,
                        "outerConeAngle" : 0.39269909262657166
                    },
                    "type" : "spot",
                    "name" : "Spot"
                }
            ]
        }
    },
    "scene" : 0,
    "scenes" : [
        {
            "name" : "Scene",
            "nodes" : [
                1,
                2,
                4,
                5
            ]
        }
    ],
    "nodes" : [
        {
            "camera" : 0,
            "name" : "Camera_Orientation",
            "rotation" : [
                -0.7071067690849304,
                0,
                0,
                0.7071067690849304
            ]
        },
        {
            "children" : [
                0
            ],
            "name" : "Camera",
            "rotation" : [
                0.6891469955444336,
                0,
                0,
                0.7246215343475342
            ],
            "translation" : [
                0,
                1.021530032157898,
                5.337759971618652
            ]
        },
        {
            "mesh" : 0,
            "name" : "CornellBox",
            "rotation" : [
                0.7071068286895752,
                0,
                0,
                0.7071067094802856
            ]
        },
        {
            "extensions" : {
                "KHR_lights_punctual" : {
                    "light" : 0
                }
            },
            "name" : "SpotLight_Orientation",
            "rotation" : [
                -0.7071067690849304,
                0,
                0,
                0.7071067690849304
            ]
        },
        {
            "children" : [
                3
            ],
            "name" : "SpotLight",
            "translation" : [
                0.006089999806135893,
                2.1495800018310547,
                -0.03663700073957443
            ]
        },
        {
            "mesh" : 1,
            "name" : "Water",
            "rotation" : [
                0.7071068286895752,
                0,
                0,
                0.7071067094802856
            ],
            "translation" : [
                0,
                0.17357900738716125,
                0
            ]
        }
    ],
    "cameras" : [
        {
            "name" : "Camera.001",
            "perspective" : {
                "aspectRatio" : 1.7777777777777777,
                "yfov" : 0.39959651231765747,
                "zfar" : 100,
                "znear" : 0.10000000149011612
            },
            "type" : "perspective"
        }
    ],
    "materials" : [
        {
            "doubleSided" : true,
            "name" : "leftSphere",
            "pbrMetallicRoughness" : {
                "baseColorFactor" : [
                    0.14602535963058472,
                    0.284249871969223,
                    0.20389950275421143,
                    1
                ],
                "metallicFactor" : 0,
                "roughnessFactor" : 0.8949999809265137
            }
        },
        {
            "doubleSided" : true,
            "name" : "rightSphere",
            "pbrMetallicRoughness" : {
                "baseColorFactor" : [
                    0.2473503202199936,
                    0.24145150184631348,
                    0.04850522056221962,
                    1
                ],
                "metallicFactor" : 0,
                "roughnessFactor" : 0.8949999809265137
            }
        },
        {
            "name" : "floor",
            "pbrMetallicRoughness" : {
                "baseColorFactor" : [
                    0.7250000238418579,
                    0.7099999785423279,
                    0.6800000071525574,
                    1
                ],
                "metallicFactor" : 0,
                "roughnessFactor" : 0.8945907354354858
            }
        },
        {
            "name" : "ceiling",
            "pbrMetallicRoughness" : {
                "baseColorFactor" : [
                    0.7250000238418579,
                    0.7099999785423279,
                    0.6800000071525574,
                    1
                ],
                "metallicFactor" : 0,
                "roughnessFactor" : 0.8945907354354858
            }
        },
        {
            "doubleSided" : true,
            "name" : "backWall",
            "pbrMetallicRoughness" : {
                "baseColorFactor" : [
                    0.7250000238418579,
                    0.7099999785423279,
                    0.6800000071525574,
                    1
                ],
                "metallicFactor" : 0,
                "roughnessFactor" : 0.8945907354354858
            }
        },
        {
            "name" : "rightWall",
            "pbrMetallicRoughness" : {
                "baseColorFactor" : [
                    0.16099999845027924,
                    0.13300000131130219,
                    0.4269999861717224,
                    1
                ],
                "metallicFactor" : 0,
                "roughnessFactor" : 0.8945907354354858
            }
        },
        {
            "name" : "leftWall",
            "pbrMetallicRoughness" : {
                "baseColorFactor" : [
                    0.6299999952316284,
                    0.06499999761581421,
                    0.05000000074505806,
                    1
                ],
                "metallicFactor" : 0,
                "roughnessFactor" : 0.8945907354354858
            }
        },
        {
            "emissiveFactor" : [
                1,
                1,
                1
            ],
            "name" : "light",
            "pbrMetallicRoughness" : {
                "baseColorFactor" : [
                    0.7799999713897705,
                    0.7799999713897705,
                    0.7799999713897705,
                    1
                ],
                "metallicFactor" : 0,
                "roughnessFactor" : 0.8945907354354858
            }
        },
        {
            "alphaMode" : "BLEND",
            "doubleSided" : true,
            "name" : "water",
            "pbrMetallicRoughness" : {
                "baseColorFactor" : [
                    0.34779277443885803,
                    0.4618620276451111,
                    0.5355525612831116,
                    0.44999998807907104
                ],
                "metallicFactor" : 0.8949999809265137,
                "roughnessFactor" : 0.10000000149011612
            }
        }
    ],
    "meshes" : [
        {
            "name" : "CornellBox-Water",
            "primitives" : [
                {
                    "attributes" : {
                        "POSITION" : 0,
                        "NORMAL" : 1,
                        "TEXCOORD_0" : 2
                    },
                    "indices" : 3,
                    "material" : 0
                },
                {
                    "attributes" : {
                        "POSITION" : 4,
                        "NORMAL" : 5,
                        "TEXCOORD_0" : 6
                    },
                    "indices" : 3,
                    "material" : 1
                },
                {
                    "attributes" : {
                        "POSITION" : 7,
                        "NORMAL" : 8,
                        "TEXCOORD_0" : 9
                    },
                    "indices" : 10,
                    "material" : 2
                },
                {
                    "attributes" : {
                        "POSITION" : 11,
                        "NORMAL" : 12,
                        "TEXCOORD_0" : 13
                    },
                    "indices" : 10,
                    "material" : 3
                },
                {
                    "attributes" : {
                        "POSITION" : 14,
                        "NORMAL" : 15,
                        "TEXCOORD_0" : 16
                    },
                    "indices" : 17,
                    "material" : 4
                },
                {
                    "attributes" : {
                        "POSITION" : 18,
                        "NORMAL" : 19,
                        "TEXCOORD_0" : 20
                    },
                    "indices" : 10,
                    "material" : 5
                },
                {
                    "attributes" : {
                        "POSITION" : 21,
                        "NORMAL" : 22,
                        "TEXCOORD_0" : 23
                    },
                    "indices" : 10,
                    "material" : 6
                },
                {
                    "attributes" : {
                        "POSITION" : 24,
                        "NORMAL" : 25,
                        "TEXCOORD_0" : 26
                    },
                    "indices" : 10,
                    "material" : 7
                }
            ]
        },
        {
            "name" : "CornellBox-Water.001",
            "primitives" : [
                {
                    "attributes" : {
                        "POSITION" : 27,
                        "NORMAL" : 28,
                        "TEXCOORD_0" : 29
                    },
                    "indices" : 30,
                    "material" : 8
                }
            ]
        }
    ],
    "accessors" : [
        {
            "bufferView" : 0,
            "componentType" : 5126,
            "count" : 628,
            "max" : [
                -0.07953224331140518,
                0.04490000009536743,
                -0.005799999926239252
            ],
            "min" : [
                -0.7267322540283203,
                -0.6049000024795532,
                -0.6583999991416931
            ],
            "type" : "VEC3"
        },
        {
            "bufferView" : 1,
            "componentType" : 5126,
            "count" : 628,
            "type" : "VEC3"
        },
        {
            "bufferView" : 2,
            "componentType" : 5126,
            "count" : 628,
            "type" : "VEC2"
        },
        {
            "bufferView" : 3,
            "componentType" : 5123,
            "count" : 3264,
            "type" : "SCALAR"
        },
        {
            "bufferView" : 4,
            "componentType" : 5126,
            "count" : 628,
            "max" : [
                0.7694000005722046,
                0.70169997215271,
                -0.005799999926239252
            ],
            "min" : [
                0.12229999899864197,
                0.05180000141263008,
                -0.6583999991416931
            ],
            "type" : "VEC3"
        },
        {
            "bufferView" : 5,
            "componentType" : 5126,
            "count" : 628,
            "type" : "VEC3"
        },
        {
            "bufferView" : 6,
            "componentType" : 5126,
            "count" : 628,
            "type" : "VEC2"
        },
        {
            "bufferView" : 7,
            "componentType" : 5126,
            "count" : 4,
            "max" : [
                1.0083773136138916,
                0.9900000095367432,
                0
            ],
            "min" : [
                -1.0016226768493652,
                -1.0399999618530273,
                0
            ],
            "type" : "VEC3"
        },
        {
            "bufferView" : 8,
            "componentType" : 5126,
            "count" : 4,
            "type" : "VEC3"
        },
        {
            "bufferView" : 9,
            "componentType" : 5126,
            "count" : 4,
            "type" : "VEC2"
        },
        {
            "bufferView" : 10,
            "componentType" : 5123,
            "count" : 6,
            "type" : "SCALAR"
        },
        {
            "bufferView" : 11,
            "componentType" : 5126,
            "count" : 4,
            "max" : [
                1.0083773136138916,
                0.9900000095367432,
                -1.590000033378601
            ],
            "min" : [
                -1.011622667312622,
                -1.0399999618530273,
                -1.590000033378601
            ],
            "type" : "VEC3"
        },
        {
            "bufferView" : 12,
            "componentType" : 5126,
            "count" : 4,
            "type" : "VEC3"
        },
        {
            "bufferView" : 13,
            "componentType" : 5126,
            "count" : 4,
            "type" : "VEC2"
        },
        {
            "bufferView" : 14,
            "componentType" : 5126,
            "count" : 6,
            "max" : [
                1.0083773136138916,
                -1.0399999618530273,
                0
            ],
            "min" : [
                -1.011622667312622,
                -1.0399999618530273,
                -1.590000033378601
            ],
            "type" : "VEC3"
        },
        {
            "bufferView" : 15,
            "componentType" : 5126,
            "count" : 6,
            "type" : "VEC3"
        },
        {
            "bufferView" : 16,
            "componentType" : 5126,
            "count" : 6,
            "type" : "VEC2"
        },
        {
            "bufferView" : 17,
            "componentType" : 5123,
            "count" : 6,
            "type" : "SCALAR"
        },
        {
            "bufferView" : 18,
            "componentType" : 5126,
            "count" : 4,
            "max" : [
                1.0083773136138916,
                0.9900000095367432,
                0
            ],
            "min" : [
                1.0083773136138916,
                -1.0399999618530273,
                -1.590000033378601
            ],
            "type" : "VEC3"
        },
        {
            "bufferView" : 19,
            "componentType" : 5126,
            "count" : 4,
            "type" : "VEC3"
        },
        {
            "bufferView" : 20,
            "componentType" : 5126,
            "count" : 4,
            "type" : "VEC2"
        },
        {
            "bufferView" : 21,
            "componentType" : 5126,
            "count" : 4,
            "max" : [
                -0.9816227555274963,
                0.9900000095367432,
                0
            ],
            "min" : [
                -1.011622667312622,
                -1.0399999618530273,
                -1.590000033378601
            ],
            "type" : "VEC3"
        },
        {
            "bufferView" : 22,
            "componentType" : 5126,
            "count" : 4,
            "type" : "VEC3"
        },
        {
            "bufferView" : 23,
            "componentType" : 5126,
            "count" : 4,
            "type" : "VEC2"
        },
        {
            "bufferView" : 24,
            "componentType" : 5126,
            "count" : 4,
            "max" : [
                0.23837725818157196,
                0.1599999964237213,
                -1.5800000429153442
            ],
            "min" : [
                -0.23162274062633514,
                -0.2199999988079071,
                -1.5800000429153442
            ],
            "type" : "VEC3"
        },
        {
            "bufferView" : 25,
            "componentType" : 5126,
            "count" : 4,
            "type" : "VEC3"
        },
        {
            "bufferView" : 26,
            "componentType" : 5126,
            "count" : 4,
            "type" : "VEC2"
        },
        {
            "bufferView" : 27,
            "componentType" : 5126,
            "count" : 38809,
            "max" : [
                1.012846827507019,
                0.9665602445602417,
                -0.147599995136261
            ],
            "min" : [
                -0.9924032688140869,
                -1.0438745021820068,
                -0.2537756562232971
            ],
            "type" : "VEC3"
        },
        {
            "bufferView" : 28,
            "componentType" : 5126,
            "count" : 38809,
            "type" : "VEC3"
        },
        {
            "bufferView" : 29,
            "componentType" : 5126,
            "count" : 38809,
            "type" : "VEC2"
        },
        {
            "bufferView" : 30,
            "componentType" : 5123,
            "count" : 230496,
            "type" : "SCALAR"
        }
    ],
    "bufferViews" : [
        {
            "buffer" : 0,
            "byteLength" : 7536,
            "byteOffset" : 0
        },
        {
            "buffer" : 0,
            "byteLength" : 7536,
            "byteOffset" : 7536
        },
        {
            "buffer" : 0,
            "byteLength" : 5024,
            "byteOffset" : 15072
        },
        {
            "buffer" : 0,
            "byteLength" : 6528,
            "byteOffset" : 20096
        },
        {
            "buffer" : 0,
            "byteLength" : 7536,
            "byteOffset" : 26624
        },
        {
            "buffer" : 0,
            "byteLength" : 7536,
            "byteOffset" : 34160
        },
        {
            "buffer" : 0,
            "byteLength" : 5024,
            "byteOffset" : 41696
        },
        {
            "buffer" : 0,
            "byteLength" : 48,
            "byteOffset" : 46720
        },
        {
            "buffer" : 0,
            "byteLength" : 48,
            "byteOffset" : 46768
        },
        {
            "buffer" : 0,
            "byteLength" : 32,
            "byteOffset" : 46816
        },
        {
            "buffer" : 0,
            "byteLength" : 12,
            "byteOffset" : 46848
        },
        {
            "buffer" : 0,
            "byteLength" : 48,
            "byteOffset" : 46860
        },
        {
            "buffer" : 0,
            "byteLength" : 48,
            "byteOffset" : 46908
        },
        {
            "buffer" : 0,
            "byteLength" : 32,
            "byteOffset" : 46956
        },
        {
            "buffer" : 0,
            "byteLength" : 72,
            "byteOffset" : 46988
        },
        {
            "buffer" : 0,
            "byteLength" : 72,
            "byteOffset" : 47060
        },
        {
            "buffer" : 0,
            "byteLength" : 48,
            "byteOffset" : 47132
        },
        {
            "buffer" : 0,
            "byteLength" : 12,
            "byteOffset" : 47180
        },
        {
            "buffer" : 0,
            "byteLength" : 48,
            "byteOffset" : 47192
        },
        {
            "buffer" : 0,
            "byteLength" : 48,
            "byteOffset" : 47240
        },
        {
            "buffer" : 0,
            "byteLength" : 32,
            "byteOffset" : 47288
        },
        {
            "buffer" : 0,
            "byteLength" : 48,
            "byteOffset" : 47320
        },
        {
            "buffer" : 0,
            "byteLength" : 48,
            "byteOffset" : 47368
        },
        {
            "buffer" : 0,
            "byteLength" : 32,
            "byteOffset" : 47416
        },
        {
            "buffer" : 0,
            "byteLength" : 48,
            "byteOffset" : 47448
        },
        {
            "buffer" : 0,
            "byteLength" : 48,
            "byteOffset" : 47496
        },
        {
            "buffer" : 0,
            "byteLength" : 32,
            "byteOffset" : 47544
        },
        {
            "buffer" : 0,
            "byteLength" : 465708,
            "byteOffset" : 47576
        },
        {
            "buffer" : 0,
            "byteLength" : 465708,
            "byteOffset" : 513284
        },
        {
            "buffer" : 0,
            "byteLength" : 310472,
            "byteOffset" : 978992
        },
        {
            "buffer" : 0,
            "byteLength" : 460992,
            "byteOffset" : 1289464
        }
    ],
    "buffers" : [
        {
            "byteLength" : 1750456,
            "uri" : "test_x4.bin"
        }
    ]
}
